<?xml version="1.0" encoding="UTF-8"?>
<svg width="25px" height="32px" viewBox="0 0 32 32" version="1.1" xmlns="http://www.w3.org/2000/svg" xmlns:xlink="http://www.w3.org/1999/xlink">
    <title>icon_绩效评价</title>
    <g id="PC端" stroke="none" stroke-width="1" fill="none" fill-rule="evenodd">
        <g id="3.2.3.1b项目编辑-选择资料类型" transform="translate(-154.000000, -584.000000)" fill="#BFBFBF" fill-rule="nonzero">
            <g id="5.反馈/3.Modal弹窗/1.默认" transform="translate(70.000000, 48.000000)">
                <g id="Group-3" transform="translate(60.000000, 492.000000)">
                    <g id="icon_绩效评价" transform="translate(24.000000, 44.000000)">
                        <rect id="矩形" opacity="0" x="0" y="0" width="32" height="32"></rect>
                        <path d="M16.0002229,3.32767712 C16.0002229,3.32767712 15.4558118,3.50914753 15.0928709,2.78326594 C14.7299301,2.05738434 12.9152262,0.0612099687 9.83022941,0.0612099687 C6.56376225,0.242680375 4.02317669,2.78326594 4.20464706,6.04973309 C4.38611747,9.13472988 6.20082144,14.5788418 14.3669893,18.9341313 C14.7299301,19.2970721 14.7299301,19.6600129 14.7299302,19.6600129 L14.7299302,24.9226545 C14.7299302,24.9226545 14.9114006,25.6485361 14.185519,25.6485361 C13.4596374,25.4670657 13.278167,24.3782433 13.278167,24.3782433 C13.278167,24.3782433 12.370815,21.6561873 10.3746406,20.3858945 C8.55993663,19.1156017 6.56376225,17.6638386 2.93435428,16.937957 C2.75288387,20.2044241 3.84170628,24.7411841 5.65641025,26.9188288 C8.741407,30.9111776 12.9152262,31.8185296 15.6372821,32.000004 C19.2666901,32.000004 23.9849204,30.185296 26.3440356,26.3744177 C29.0660916,22.7450097 28.8846212,16.7564866 28.8846212,16.7564866 C28.8846212,16.7564866 24.5293316,17.4823682 21.2628645,20.3858945 C19.2666901,22.0191281 18.7222789,23.6523617 18.5408085,24.0153025 C17.9963973,24.7411841 18.1778677,25.1041249 17.6334565,25.8300065 C16.9075749,26.3744177 17.0890453,25.8300065 16.9075749,25.1041249 L16.9075749,20.0229537 C16.9075749,20.0229537 16.7261045,19.1156017 17.8149269,18.7526609 C22.1702165,16.3935458 25.2552132,12.7641378 26.7069764,9.13472988 C28.5216804,5.50532191 27.432858,0.968561969 22.7146277,0.0612099687 C19.0852197,-0.483201219 16.9075749,2.78326594 16.9075749,2.78326594 C16.9075749,2.78326594 16.5446342,3.32767712 16.0002229,3.32767712 Z" id="路径"></path>
                    </g>
                </g>
            </g>
        </g>
    </g>
</svg>