<?xml version="1.0" encoding="UTF-8"?>
<svg width="25px" height="28px" viewBox="0 0 32 32" version="1.1" xmlns="http://www.w3.org/2000/svg" xmlns:xlink="http://www.w3.org/1999/xlink">
    <title>icon_阶段检查</title>
    <g id="PC端" stroke="none" stroke-width="1" fill="none" fill-rule="evenodd">
        <g id="3.2.3.1b项目编辑-选择资料类型" transform="translate(-154.000000, -440.000000)" fill="#FFFFFF" fill-rule="nonzero">
            <g id="5.反馈/3.Modal弹窗/1.默认" transform="translate(70.000000, 48.000000)">
                <g id="Group-3" transform="translate(60.000000, 348.000000)">
                    <g id="icon_阶段检查" transform="translate(24.000000, 44.000000)">
                        <rect id="矩形" opacity="0" x="1.59136114e-06" y="0" width="31.9999984" height="31.9999984"></rect>
                        <path d="M8.00000079,8 L8.00000079,1.59999992 C8.00000079,0.716344365 8.71634556,0 9.60000111,0 L30.4000001,0 C31.2836556,0 32.0000008,0.716344365 32.0000008,1.59999992 L32.0000008,22.3999989 C32.0000008,23.2836544 31.2836556,24 30.4000001,24 L24.0000008,24 L24.0000008,30.3887985 C24.0000008,31.2783984 23.2816004,32 22.3888005,32 L1.61120151,32 C1.18375454,32.0004235 0.773692496,31.8308091 0.471441697,31.5285583 C0.169190898,31.2263075 -0.000423517824,30.8162455 7.94188892e-07,30.3887985 L0.00480159112,9.61119952 C0.00480159112,8.72159957 0.723201555,8 1.61600151,8 L8.00000079,8 Z M11.200001,7.9999996 L22.3888005,7.9999996 C23.2784004,7.9999996 24.0000004,8.71839957 24.0000004,9.61119952 L24.0000004,20.799999 L28.8000002,20.799999 L28.8000002,3.19999984 L11.200001,3.19999984 L11.200001,7.9999996 Z M10.4048011,25.5999987 L19.4544006,16.5487992 L17.1920007,14.2863993 L10.4048011,21.075199 L7.00800124,17.6799991 L4.74560136,19.942399 L10.4048011,25.5999987 Z" id="形状"></path>
                    </g>
                </g>
            </g>
        </g>
    </g>
</svg>