<?xml version="1.0" encoding="UTF-8"?>
<svg width="26px" height="29px" viewBox="0 0 32 32" version="1.1" xmlns="http://www.w3.org/2000/svg" xmlns:xlink="http://www.w3.org/1999/xlink">
    <title>icon_项目信息</title>
    <g id="PC端" stroke="none" stroke-width="1" fill="none" fill-rule="evenodd">
        <g id="3.2.3.1b项目编辑-选择资料类型" transform="translate(-154.000000, -296.000000)" fill="#BFBFBF" fill-rule="nonzero">
            <g id="5.反馈/3.Modal弹窗/1.默认" transform="translate(70.000000, 48.000000)">
                <g id="Group-3" transform="translate(60.000000, 204.000000)">
                    <g id="icon_项目信息" transform="translate(24.000000, 44.000000)">
                        <rect id="矩形" opacity="0" x="0" y="0" width="32" height="32"></rect>
                        <path d="M25.728,1.888 C27.0933333,1.888 28.128,2.288 28.832,3.088 C29.536,3.888 29.888,4.864 29.888,6.016 L29.888,23.008 C29.888,23.5413333 29.664,24.0213333 29.216,24.448 L23.872,29.568 C23.5946667,29.8026667 23.36,29.952 23.168,30.016 C22.976,30.08 22.7306667,30.112 22.432,30.112 L8.064,30.112 C7.57333333,30.112 7.08266667,30.0106667 6.592,29.808 C6.10133333,29.6053333 5.664,29.3173333 5.28,28.944 C4.896,28.5706667 4.58133333,28.1226667 4.336,27.6 C4.09066667,27.0773333 3.968,26.496 3.968,25.856 L3.968,6.016 C3.968,4.75733333 4.31466667,3.75466667 5.008,3.008 C5.70133333,2.26133333 6.688,1.888 7.968,1.888 L25.728,1.888 L25.728,1.888 Z M19.008,21.952 C19.2853333,21.952 19.52,21.856 19.712,21.664 C19.904,21.472 20,21.2373333 20,20.96 C20,20.6613333 19.904,20.4213333 19.712,20.24 C19.52,20.0586667 19.2853333,19.968 19.008,19.968 L8.992,19.968 C8.71466667,19.968 8.48,20.0586667 8.288,20.24 C8.096,20.4213333 8,20.6613333 8,20.96 C8,21.2373333 8.096,21.472 8.288,21.664 C8.48,21.856 8.71466667,21.952 8.992,21.952 L19.008,21.952 Z M23.008,15.936 C23.2853333,15.936 23.52,15.84 23.712,15.648 C23.904,15.456 24,15.2213333 24,14.944 C24,14.6666667 23.904,14.432 23.712,14.24 C23.52,14.048 23.2853333,13.952 23.008,13.952 L8.992,13.952 C8.71466667,13.952 8.48,14.048 8.288,14.24 C8.096,14.432 8,14.6666667 8,14.944 C8,15.2213333 8.096,15.456 8.288,15.648 C8.48,15.84 8.71466667,15.936 8.992,15.936 L23.008,15.936 Z M24.992,9.952 C25.2693333,9.952 25.504,9.856 25.696,9.664 C25.888,9.472 25.984,9.22666667 25.984,8.928 C25.984,8.65066667 25.888,8.416 25.696,8.224 C25.504,8.032 25.2693333,7.936 24.992,7.936 L8.992,7.936 C8.71466667,7.936 8.48,8.032 8.288,8.224 C8.096,8.416 8,8.65066667 8,8.928 C8,9.22666667 8.096,9.472 8.288,9.664 C8.48,9.856 8.71466667,9.952 8.992,9.952 L24.992,9.952 Z" id="形状"></path>
                    </g>
                </g>
            </g>
        </g>
    </g>
</svg>